<?xml version="1.0" encoding="UTF-8"?>
<svg width="400" height="400" viewBox="0 0 400 400" xmlns="http://www.w3.org/2000/svg">
  <circle cx="200" cy="200" r="200" fill="#004D40"/>
  <path d="M200 0c110.457 0 200 89.543 200 200s-89.543 200-200 200S0 310.457 0 200 89.543 0 200 0z" fill="#004D40"/>
  <g>
    <!-- Leaf -->
    <path d="M160 120c0 0 20-40 80-40c-10 40-30 80-80 100" fill="#DAA520"/>
    <!-- Hand -->
    <path d="M140 220c10-5 30-15 60-15c30 0 50 10 60 15" stroke="#DAA520" stroke-width="12" fill="none"/>
    <!-- Coins -->
    <circle cx="200" cy="240" r="8" fill="#DAA520"/>
    <circle cx="220" cy="240" r="8" fill="#DAA520"/>
    <!-- Woman's profile -->
    <path d="M280 140c0 44.183-35.817 80-80 80s-80-35.817-80-80s35.817-80 80-80s80 35.817 80 80z" fill="#FF5722"/>
    <path d="M200 220c-44.183 0-80-35.817-80-80c0-44.183 35.817-80 80-80" fill="#FF5722"/>
  </g>
</svg>
